<svg width="1234" height="338" xmlns="http://www.w3.org/2000/svg" xmlns:xlink="http://www.w3.org/1999/xlink" xml:space="preserve" overflow="hidden"><g><path d="M0 10.0001C-1.27315e-15 4.47722 4.47722-1.27315e-15 10.0001-2.5463e-15 15.5231-5.09261e-15 20.0003 4.47722 20.0003 10.0001 20.0003 15.5231 15.5231 20.0003 10.0001 20.0003 4.47722 20.0003-6.36576e-15 15.5231 0 10.0001Z" stroke="#009FE3" stroke-width="4.58333" stroke-miterlimit="8" fill="#009FE3" fill-rule="evenodd" transform="matrix(6.12323e-17 1 1 -6.12323e-17 78.4999 78.4999)"/><path d="M0 10.5C-1.27315e-15 4.701 4.47722-1.33679e-15 10.0001-2.67358e-15 15.5231-5.34715e-15 20.0003 4.701 20.0003 10.5 20.0003 16.299 15.5231 21 10.0001 21 4.47722 21-6.36576e-15 16.299 0 10.5Z" stroke="#FFFFFF" stroke-width="4.58333" stroke-miterlimit="8" fill="none" fill-rule="evenodd" transform="matrix(6.12323e-17 1 1 -6.12323e-17 118.5 78.4999)"/><path d="M0 9.99997C-1.27315e-15 4.47714 4.47722-1.27313e-15 10.0001-2.54626e-15 15.5231-5.09252e-15 20.0003 4.47714 20.0003 9.99997 20.0003 15.5228 15.5231 19.9999 10.0001 19.9999 4.47722 19.9999-6.36576e-15 15.5228 0 9.99997Z" stroke="#FFFFFF" stroke-width="4.58333" stroke-miterlimit="8" fill="none" fill-rule="evenodd" transform="matrix(6.12323e-17 1 1 -6.12323e-17 159.5 78.4997)"/><path d="M0 10.0001C-1.27315e-15 4.47722 4.47722-1.27315e-15 10.0001-2.5463e-15 15.5231-5.09261e-15 20.0003 4.47722 20.0003 10.0001 20.0003 15.5231 15.5231 20.0003 10.0001 20.0003 4.47722 20.0003-6.36576e-15 15.5231 0 10.0001Z" stroke="#FFFFFF" stroke-width="4.58333" stroke-miterlimit="8" fill="none" fill-rule="evenodd" transform="matrix(6.12323e-17 1 1 -6.12323e-17 199.5 78.4999)"/><path d="M0 9.99997C-1.27315e-15 4.47714 4.47722-1.27313e-15 10.0001-2.54626e-15 15.5231-5.09252e-15 20.0003 4.47714 20.0003 9.99997 20.0003 15.5228 15.5231 19.9999 10.0001 19.9999 4.47722 19.9999-6.36576e-15 15.5228 0 9.99997Z" stroke="#FFFFFF" stroke-width="4.58333" stroke-miterlimit="8" fill="none" fill-rule="evenodd" transform="matrix(6.12323e-17 1 1 -6.12323e-17 240.5 78.4997)"/><path d="M0 10.0001C-1.33679e-15 4.47722 4.701-1.27315e-15 10.5-2.5463e-15 16.299-5.09261e-15 21 4.47722 21 10.0001 21 15.5231 16.299 20.0003 10.5 20.0003 4.701 20.0003-6.68394e-15 15.5231 0 10.0001Z" stroke="#009FE3" stroke-width="4.58333" stroke-miterlimit="8" fill="#009FE3" fill-rule="evenodd" transform="matrix(6.12323e-17 1 1 -6.12323e-17 78.4999 118.5)"/><path d="M0 10.5C-1.33679e-15 4.701 4.701-1.33679e-15 10.5-2.67358e-15 16.299-5.34715e-15 21 4.701 21 10.5 21 16.299 16.299 21 10.5 21 4.701 21-6.68394e-15 16.299 0 10.5Z" stroke="#009FE3" stroke-width="4.58333" stroke-miterlimit="8" fill="#009FE3" fill-rule="evenodd" transform="matrix(6.12323e-17 1 1 -6.12323e-17 118.5 118.5)"/><path d="M0 9.99997C-1.33679e-15 4.47714 4.701-1.27313e-15 10.5-2.54626e-15 16.299-5.09252e-15 21 4.47714 21 9.99997 21 15.5228 16.299 19.9999 10.5 19.9999 4.701 19.9999-6.68394e-15 15.5228 0 9.99997Z" stroke="#FFFFFF" stroke-width="4.58333" stroke-miterlimit="8" fill="none" fill-rule="evenodd" transform="matrix(6.12323e-17 1 1 -6.12323e-17 159.5 118.5)"/><path d="M0 10.0001C-1.33679e-15 4.47722 4.701-1.27315e-15 10.5-2.5463e-15 16.299-5.09261e-15 21 4.47722 21 10.0001 21 15.5231 16.299 20.0003 10.5 20.0003 4.701 20.0003-6.68394e-15 15.5231 0 10.0001Z" stroke="#FFFFFF" stroke-width="4.58333" stroke-miterlimit="8" fill="none" fill-rule="evenodd" transform="matrix(6.12323e-17 1 1 -6.12323e-17 199.5 118.5)"/><path d="M0 9.99997C-1.33679e-15 4.47714 4.701-1.27313e-15 10.5-2.54626e-15 16.299-5.09252e-15 21 4.47714 21 9.99997 21 15.5228 16.299 19.9999 10.5 19.9999 4.701 19.9999-6.68394e-15 15.5228 0 9.99997Z" stroke="#FFFFFF" stroke-width="4.58333" stroke-miterlimit="8" fill="none" fill-rule="evenodd" transform="matrix(6.12323e-17 1 1 -6.12323e-17 240.5 118.5)"/><path d="M0 10.0001C-1.27313e-15 4.47722 4.47714-1.27315e-15 9.99997-2.5463e-15 15.5228-5.09261e-15 19.9999 4.47722 19.9999 10.0001 19.9999 15.5231 15.5228 20.0003 9.99997 20.0003 4.47714 20.0003-6.36565e-15 15.5231 0 10.0001Z" stroke="#009FE3" stroke-width="4.58333" stroke-miterlimit="8" fill="#009FE3" fill-rule="evenodd" transform="matrix(6.12323e-17 1 1 -6.12323e-17 78.4997 159.5)"/><path d="M0 10.5C-1.27313e-15 4.701 4.47714-1.33679e-15 9.99997-2.67358e-15 15.5228-5.34715e-15 19.9999 4.701 19.9999 10.5 19.9999 16.299 15.5228 21 9.99997 21 4.47714 21-6.36565e-15 16.299 0 10.5Z" stroke="#009FE3" stroke-width="4.58333" stroke-miterlimit="8" fill="#009FE3" fill-rule="evenodd" transform="matrix(6.12323e-17 1 1 -6.12323e-17 118.5 159.5)"/><path d="M0 9.99997C-1.27313e-15 4.47714 4.47714-1.27313e-15 9.99997-2.54626e-15 15.5228-5.09252e-15 19.9999 4.47714 19.9999 9.99997 19.9999 15.5228 15.5228 19.9999 9.99997 19.9999 4.47714 19.9999-6.36565e-15 15.5228 0 9.99997Z" stroke="#009FE3" stroke-width="4.58333" stroke-miterlimit="8" fill="#009FE3" fill-rule="evenodd" transform="matrix(6.12323e-17 1 1 -6.12323e-17 159.5 159.5)"/><path d="M0 10.0001C-1.27313e-15 4.47722 4.47714-1.27315e-15 9.99997-2.5463e-15 15.5228-5.09261e-15 19.9999 4.47722 19.9999 10.0001 19.9999 15.5231 15.5228 20.0003 9.99997 20.0003 4.47714 20.0003-6.36565e-15 15.5231 0 10.0001Z" stroke="#FFFFFF" stroke-width="4.58333" stroke-miterlimit="8" fill="none" fill-rule="evenodd" transform="matrix(6.12323e-17 1 1 -6.12323e-17 199.5 159.5)"/><path d="M0 9.99997C-1.27313e-15 4.47714 4.47714-1.27313e-15 9.99997-2.54626e-15 15.5228-5.09252e-15 19.9999 4.47714 19.9999 9.99997 19.9999 15.5228 15.5228 19.9999 9.99997 19.9999 4.47714 19.9999-6.36565e-15 15.5228 0 9.99997Z" stroke="#FFFFFF" stroke-width="4.58333" stroke-miterlimit="8" fill="none" fill-rule="evenodd" transform="matrix(6.12323e-17 1 1 -6.12323e-17 240.5 159.5)"/><path d="M0 10.0001C-1.27315e-15 4.47722 4.47722-1.27315e-15 10.0001-2.5463e-15 15.5231-5.09261e-15 20.0003 4.47722 20.0003 10.0001 20.0003 15.5231 15.5231 20.0003 10.0001 20.0003 4.47722 20.0003-6.36576e-15 15.5231 0 10.0001Z" stroke="#009FE3" stroke-width="4.58333" stroke-miterlimit="8" fill="#009FE3" fill-rule="evenodd" transform="matrix(6.12323e-17 1 1 -6.12323e-17 78.4999 199.5)"/><path d="M0 10.5C-1.27315e-15 4.701 4.47722-1.33679e-15 10.0001-2.67358e-15 15.5231-5.34715e-15 20.0003 4.701 20.0003 10.5 20.0003 16.299 15.5231 21 10.0001 21 4.47722 21-6.36576e-15 16.299 0 10.5Z" stroke="#009FE3" stroke-width="4.58333" stroke-miterlimit="8" fill="#009FE3" fill-rule="evenodd" transform="matrix(6.12323e-17 1 1 -6.12323e-17 118.5 199.5)"/><path d="M0 9.99997C-1.27315e-15 4.47714 4.47722-1.27313e-15 10.0001-2.54626e-15 15.5231-5.09252e-15 20.0003 4.47714 20.0003 9.99997 20.0003 15.5228 15.5231 19.9999 10.0001 19.9999 4.47722 19.9999-6.36576e-15 15.5228 0 9.99997Z" stroke="#009FE3" stroke-width="4.58333" stroke-miterlimit="8" fill="#009FE3" fill-rule="evenodd" transform="matrix(6.12323e-17 1 1 -6.12323e-17 159.5 199.5)"/><path d="M0 10.0001C-1.27315e-15 4.47722 4.47722-1.27315e-15 10.0001-2.5463e-15 15.5231-5.09261e-15 20.0003 4.47722 20.0003 10.0001 20.0003 15.5231 15.5231 20.0003 10.0001 20.0003 4.47722 20.0003-6.36576e-15 15.5231 0 10.0001Z" stroke="#009FE3" stroke-width="4.58333" stroke-miterlimit="8" fill="#009FE3" fill-rule="evenodd" transform="matrix(6.12323e-17 1 1 -6.12323e-17 199.5 199.5)"/><path d="M0 9.99997C-1.27315e-15 4.47714 4.47722-1.27313e-15 10.0001-2.54626e-15 15.5231-5.09252e-15 20.0003 4.47714 20.0003 9.99997 20.0003 15.5228 15.5231 19.9999 10.0001 19.9999 4.47722 19.9999-6.36576e-15 15.5228 0 9.99997Z" stroke="#FFFFFF" stroke-width="4.58333" stroke-miterlimit="8" fill="none" fill-rule="evenodd" transform="matrix(6.12323e-17 1 1 -6.12323e-17 240.5 199.5)"/><path d="M0 10.0001C-1.27313e-15 4.47722 4.47714-1.27315e-15 9.99997-2.5463e-15 15.5228-5.09261e-15 19.9999 4.47722 19.9999 10.0001 19.9999 15.5231 15.5228 20.0003 9.99997 20.0003 4.47714 20.0003-6.36565e-15 15.5231 0 10.0001Z" stroke="#009FE3" stroke-width="4.58333" stroke-miterlimit="8" fill="#009FE3" fill-rule="evenodd" transform="matrix(6.12323e-17 1 1 -6.12323e-17 78.4997 240.5)"/><path d="M0 10.5C-1.27313e-15 4.701 4.47714-1.33679e-15 9.99997-2.67358e-15 15.5228-5.34715e-15 19.9999 4.701 19.9999 10.5 19.9999 16.299 15.5228 21 9.99997 21 4.47714 21-6.36565e-15 16.299 0 10.5Z" stroke="#009FE3" stroke-width="4.58333" stroke-miterlimit="8" fill="#009FE3" fill-rule="evenodd" transform="matrix(6.12323e-17 1 1 -6.12323e-17 118.5 240.5)"/><path d="M0 9.99997C-1.27313e-15 4.47714 4.47714-1.27313e-15 9.99997-2.54626e-15 15.5228-5.09252e-15 19.9999 4.47714 19.9999 9.99997 19.9999 15.5228 15.5228 19.9999 9.99997 19.9999 4.47714 19.9999-6.36565e-15 15.5228 0 9.99997Z" stroke="#009FE3" stroke-width="4.58333" stroke-miterlimit="8" fill="#009FE3" fill-rule="evenodd" transform="matrix(6.12323e-17 1 1 -6.12323e-17 159.5 240.5)"/><path d="M0 10.0001C-1.27313e-15 4.47722 4.47714-1.27315e-15 9.99997-2.5463e-15 15.5228-5.09261e-15 19.9999 4.47722 19.9999 10.0001 19.9999 15.5231 15.5228 20.0003 9.99997 20.0003 4.47714 20.0003-6.36565e-15 15.5231 0 10.0001Z" stroke="#009FE3" stroke-width="4.58333" stroke-miterlimit="8" fill="#009FE3" fill-rule="evenodd" transform="matrix(6.12323e-17 1 1 -6.12323e-17 199.5 240.5)"/><path d="M0 9.99997C-1.27313e-15 4.47714 4.47714-1.27313e-15 9.99997-2.54626e-15 15.5228-5.09252e-15 19.9999 4.47714 19.9999 9.99997 19.9999 15.5228 15.5228 19.9999 9.99997 19.9999 4.47714 19.9999-6.36565e-15 15.5228 0 9.99997Z" stroke="#009FE3" stroke-width="4.58333" stroke-miterlimit="8" fill="#009FE3" fill-rule="evenodd" transform="matrix(6.12323e-17 1 1 -6.12323e-17 240.5 240.5)"/><path d="M88.4998 98.5002 88.5002 239.97" stroke="#009FE3" stroke-width="4.58333" stroke-miterlimit="8" fill="none" fill-rule="evenodd"/><path d="M98.5002 250.5 239.97 250.5" stroke="#009FE3" stroke-width="4.58333" stroke-miterlimit="8" fill="none" fill-rule="evenodd"/><path d="M0 0 20.21 0.000360892" stroke="#009FE3" stroke-width="4.58333" stroke-miterlimit="8" fill="none" fill-rule="evenodd" transform="matrix(-1 0 0 1 118.71 128.5)"/><path d="M0 0 0.000360892 60.6299" stroke="#009FE3" stroke-width="4.58333" stroke-miterlimit="8" fill="none" fill-rule="evenodd" transform="matrix(1 0 0 -1 128.5 200.13)"/><path d="M139.5 209.5 200.13 209.5" stroke="#009FE3" stroke-width="4.58333" stroke-miterlimit="8" fill="none" fill-rule="evenodd"/><path d="M139.5 169.5 159.71 169.5" stroke="#009FE3" stroke-width="4.58333" stroke-miterlimit="8" fill="none" fill-rule="evenodd"/><path d="M490.223 113.936C482.916 114.076 477.022 116.641 472.542 121.627 468.062 126.614 465.758 133.178 465.631 141.32 465.758 149.469 468.062 156.061 472.542 161.096 477.022 166.131 482.916 168.723 490.223 168.87 497.436 168.723 503.226 166.131 507.593 161.096 511.96 156.061 514.201 149.469 514.318 141.32 514.201 133.178 511.96 126.614 507.593 121.627 503.226 116.641 497.436 114.076 490.223 113.936ZM548.825 98.7846 568.27 98.7846 568.27 149.081C568.36 154.956 570.038 159.697 573.305 163.305 576.572 166.912 580.891 168.767 586.262 168.87 591.661 168.764 596.255 167.204 600.044 164.191 603.834 161.178 606.117 157.351 606.894 152.709L606.894 98.7846 627 98.7846 627 184.021 606.894 184.021 606.894 172.659C604.185 176.673 600.526 179.885 595.918 182.294 591.31 184.703 586.166 185.938 580.485 186 571.01 185.832 563.403 182.75 557.664 176.753 551.925 170.757 548.979 162.852 548.825 153.039ZM322.32 98.7846 342.425 98.7846 342.425 184.021 322.32 184.021ZM403.204 96.8059C412.679 96.9736 420.286 100.056 426.025 106.052 431.764 112.049 434.71 119.954 434.864 129.767L434.864 184.021 415.418 184.021 415.418 133.725C415.329 127.85 413.651 123.108 410.384 119.501 407.117 115.894 402.798 114.038 397.427 113.936 392.028 114.042 387.434 115.602 383.644 118.615 379.855 121.628 377.571 125.455 376.794 130.096L376.794 184.021 356.689 184.021 356.689 98.7846 376.794 98.7846 376.794 110.147C379.504 106.133 383.163 102.921 387.771 100.512 392.379 98.1029 397.523 96.8675 403.204 96.8059ZM514.318 68.7717 534.424 68.7717 534.424 184.021 514.318 184.021 514.318 170.847C510.911 175.658 506.709 179.377 501.713 182.006 496.717 184.634 491.072 185.966 484.776 186 473.257 185.778 463.917 181.61 456.756 173.496 449.595 165.383 445.906 154.658 445.69 141.32 445.906 128.062 449.595 117.385 456.756 109.289 463.917 101.193 473.257 97.0316 484.776 96.8059 491.072 96.8401 496.717 98.1714 501.713 100.8 506.709 103.428 510.911 107.148 514.318 111.959ZM332.538 62.9999C335.751 63.0926 338.43 64.2252 340.572 66.398 342.715 68.5707 343.828 71.2276 343.91 74.3681 343.828 77.5158 342.715 80.2001 340.572 82.4209 338.43 84.6416 335.751 85.8019 332.538 85.9015 329.245 85.8019 326.518 84.6416 324.358 82.4209 322.198 80.2001 321.079 77.5158 321 74.3681 321.079 71.2276 322.198 68.5707 324.358 66.398 326.518 64.2252 329.245 63.0926 332.538 62.9999Z" fill="#FFFFFF" fill-rule="evenodd"/><path d="M964.174 146.456C960.29 146.518 957.087 147.594 954.565 149.685 952.042 151.776 950.736 154.509 950.647 157.883 950.712 161.237 951.901 163.886 954.214 165.832 956.527 167.778 959.572 168.772 963.349 168.813 967.586 168.782 971.277 167.851 974.422 166.019 977.566 164.186 979.484 161.64 980.175 158.38L980.175 149.271C977.993 148.429 975.511 147.753 972.731 147.243 969.951 146.732 967.098 146.47 964.174 146.456ZM880.323 118.99C876.076 119.032 872.375 120.192 869.219 122.471 866.064 124.749 863.722 127.898 862.194 131.917L896.804 131.917C895.633 127.97 893.649 124.843 890.85 122.533 888.052 120.223 884.543 119.042 880.323 118.99ZM1068.64 96.5092C1074.38 96.554 1079.58 97.8695 1084.23 100.456 1088.88 103.042 1092.64 106.631 1095.49 111.222 1097.88 106.703 1101.48 103.135 1106.29 100.518 1111.11 97.9006 1116.69 96.5642 1123.04 96.5092 1132.15 96.6778 1139.71 99.7709 1145.69 105.788 1151.68 111.805 1154.78 119.736 1155 129.58L1155 184.18 1128.32 184.18 1128.32 134.543C1128.25 130.166 1126.98 126.636 1124.52 123.954 1122.06 121.273 1118.82 119.894 1114.79 119.818 1110.51 119.897 1107.07 121.186 1104.46 123.685 1101.85 126.184 1100.51 129.418 1100.44 133.385L1100.44 184.18 1073.75 184.18 1073.75 134.543C1073.68 130.166 1072.42 126.636 1069.96 123.954 1067.5 121.273 1064.25 119.894 1060.22 119.818 1055.95 119.897 1052.5 121.186 1049.89 123.685 1047.28 126.184 1045.94 129.418 1045.87 133.385L1045.87 184.015 1018.03 184.015 1018.03 98.4945 1045.87 98.4945 1045.87 109.569C1047.98 105.481 1050.99 102.291 1054.9 100.001 1058.82 97.711 1063.4 96.5472 1068.64 96.5092ZM968.628 96.5092C979.819 96.6119 988.959 99.8776 996.047 106.307 1003.14 112.736 1006.79 121.713 1007.02 133.237L1007.02 184.015 980.175 184.015 980.175 176.746C977.14 179.734 973.559 182.02 969.432 183.604 965.304 185.188 961.022 185.986 956.586 186 947.302 185.877 939.626 183.355 933.559 178.437 927.491 173.518 924.347 166.943 924.127 158.711 924.374 150.212 927.875 143.381 934.63 138.218 941.385 133.055 949.913 130.403 960.214 130.262 963.377 130.269 966.662 130.627 970.071 131.336 973.48 132.046 976.848 133.065 980.175 134.393L980.175 133.237C980.13 128.597 978.487 124.836 975.247 121.954 972.006 119.072 967.435 117.588 961.534 117.501 957.558 117.526 953.882 118.099 950.506 119.221 947.131 120.343 943.664 121.869 940.105 123.799L931.375 106.261C937.291 103.252 943.333 100.883 949.5 99.1539 955.667 97.4251 962.043 96.5435 968.628 96.5092ZM879.829 96.5092C893.439 96.6568 903.959 101.321 911.389 110.501 918.819 119.682 922.582 132.494 922.678 148.938L861.865 148.938C863.221 153.308 865.494 156.788 868.684 159.377 871.873 161.965 875.753 163.291 880.323 163.353 883.692 163.329 887.091 162.673 890.521 161.386 893.951 160.098 896.979 158.324 899.606 156.063L916.086 172.776C912.107 176.726 906.922 179.901 900.533 182.301 894.143 184.702 887.681 185.934 881.147 186 867.702 185.77 856.769 181.56 848.351 173.371 839.932 165.182 835.592 154.393 835.331 141.006 835.578 127.784 839.781 117.121 847.939 109.014 856.097 100.908 866.727 96.7393 879.829 96.5092ZM833.662 96.5092 833.662 119.818C824.929 119.904 818.122 122.213 813.242 126.748 808.362 131.281 805.882 137.523 805.803 145.473L805.638 145.142 805.638 184.015 777.8 184.015 777.8 98.4945 805.638 98.4945 805.638 114.375C808.485 108.782 812.311 104.419 817.115 101.286 821.92 98.1532 827.436 96.5609 833.662 96.5092ZM672.232 96.5092C678.635 96.5609 684.798 97.5731 690.719 99.5465 696.641 101.52 702.015 104.144 706.843 107.418L696.631 125.778C692.856 123.326 688.833 121.319 684.56 119.757 680.288 118.195 676.179 117.388 672.232 117.336 669.63 117.377 667.533 117.874 665.941 118.825 664.349 119.777 663.531 120.936 663.487 122.301 663.428 124.105 664.453 125.464 666.56 126.378 668.667 127.291 672.208 128.36 677.183 129.585 682.354 130.717 687.377 132.241 692.253 134.158 697.129 136.075 701.163 138.875 704.354 142.557 707.545 146.24 709.198 151.296 709.314 157.724 709.194 166.428 705.974 173.291 699.655 178.313 693.336 183.334 684.635 185.897 673.553 186 666.276 185.969 659.188 184.833 652.288 182.591 645.388 180.349 639.292 177.188 634 173.107L645.203 155.076C649.232 157.945 653.776 160.277 658.836 162.07 663.897 163.863 669.022 164.787 674.212 164.842 677.283 164.828 679.641 164.36 681.288 163.435 682.934 162.511 683.766 161.215 683.783 159.546 683.725 157.535 682.439 155.969 679.926 154.849 677.413 153.728 674.023 152.7 669.757 151.766 664.176 150.581 658.984 149.088 654.181 147.284 649.377 145.481 645.48 142.859 642.489 139.418 639.499 135.978 637.933 131.21 637.791 125.115 637.908 116.76 641.01 109.945 647.1 104.672 653.189 99.3985 661.566 96.6778 672.232 96.5092ZM721.423 74.9999 748.107 74.9999 748.107 98.4945 765.745 98.4945 765.745 120.81 748.107 120.81 748.107 153.421C748.152 156.198 748.887 158.425 750.312 160.105 751.737 161.785 753.585 162.647 755.855 162.691 757.452 162.678 758.956 162.416 760.367 161.905 761.779 161.395 762.912 160.719 763.767 159.877L769.372 177.9C766.724 180.335 763.531 182.284 759.791 183.748 756.051 185.211 752.321 185.962 748.602 186 740.479 185.859 733.952 183.289 729.021 178.292 724.089 173.294 721.557 166.715 721.423 158.553L721.423 120.81 710.213 120.81 710.213 98.4945 721.423 98.4945Z" fill="#009FE3" fill-rule="evenodd"/><path d="M952.62 249.583C949.175 249.627 946.316 250.478 944.042 252.135 941.768 253.792 940.588 255.994 940.504 258.74 940.567 261.473 941.623 263.619 943.67 265.18 945.717 266.74 948.37 267.536 951.629 267.566 955 267.554 958.116 266.75 960.978 265.152 963.839 263.555 965.716 261.234 966.609 258.188L966.609 251.79C964.511 251.071 962.29 250.523 959.945 250.149 957.6 249.774 955.158 249.586 952.62 249.583ZM845.968 249.583C842.523 249.627 839.664 250.478 837.39 252.135 835.115 253.792 833.936 255.994 833.851 258.74 833.915 261.473 834.971 263.619 837.018 265.18 839.065 266.74 841.718 267.536 844.977 267.566 848.348 267.554 851.464 266.75 854.325 265.152 857.187 263.555 859.064 261.234 859.957 258.188L859.957 251.79C857.859 251.071 855.638 250.523 853.293 250.149 850.947 249.774 848.506 249.586 845.968 249.583ZM704.912 249.583C701.467 249.627 698.608 250.478 696.334 252.135 694.059 253.792 692.88 255.994 692.795 258.74 692.859 261.473 693.915 263.619 695.962 265.18 698.009 266.74 700.662 267.536 703.92 267.566 707.292 267.554 710.408 266.75 713.269 265.152 716.131 263.555 718.008 261.234 718.901 258.188L718.901 251.79C716.803 251.071 714.582 250.523 712.237 250.149 709.891 249.774 707.45 249.586 704.912 249.583ZM598.259 249.583C594.815 249.627 591.956 250.478 589.681 252.135 587.407 253.792 586.228 255.994 586.143 258.74 586.207 261.473 587.263 263.619 589.31 265.18 591.357 266.74 594.01 267.536 597.268 267.566 600.639 267.554 603.756 266.75 606.617 265.152 609.479 263.555 611.356 261.234 612.249 258.188L612.249 251.79C610.151 251.071 607.93 250.523 605.584 250.149 603.239 249.774 600.798 249.586 598.259 249.583ZM1118.94 229.19C1114.34 229.273 1110.63 230.734 1107.79 233.574 1104.95 236.414 1103.5 240.136 1103.41 244.74 1103.5 249.397 1104.95 253.151 1107.79 256.003 1110.63 258.854 1114.34 260.32 1118.94 260.4 1123.59 260.32 1127.34 258.854 1130.19 256.003 1133.04 253.151 1134.5 249.397 1134.58 244.74 1134.5 240.136 1133.04 236.414 1130.19 233.574 1127.34 230.734 1123.59 229.273 1118.94 229.19ZM1050.91 229.19C1046.04 229.333 1041.95 231.143 1038.65 234.621 1035.35 238.099 1033.64 242.391 1033.5 247.496 1033.64 252.654 1035.35 256.977 1038.65 260.467 1041.95 263.957 1046.04 265.772 1050.91 265.912 1055.72 265.772 1059.77 263.957 1063.06 260.467 1066.35 256.977 1068.06 252.654 1068.2 247.496 1068.06 242.391 1066.35 238.099 1063.06 234.621 1059.77 231.143 1055.72 229.333 1050.91 229.19ZM1115.09 217.74C1119.16 217.769 1122.91 218.646 1126.32 220.368 1129.74 222.091 1132.49 224.481 1134.58 227.539L1134.58 219.063 1148 219.063 1148 269.979C1147.85 277.44 1145.07 283.444 1139.67 287.991 1134.26 292.538 1127.13 294.874 1118.28 295 1113.33 294.959 1108.73 294.243 1104.49 292.853 1100.25 291.463 1096.7 289.646 1093.84 287.403L1098.79 277.59C1100.84 279.431 1103.41 280.88 1106.51 281.935 1109.62 282.991 1112.88 283.528 1116.3 283.549 1121.98 283.503 1126.43 282.243 1129.65 279.77 1132.88 277.297 1134.52 273.886 1134.58 269.539L1134.58 262.162C1132.3 265.215 1129.51 267.587 1126.2 269.277 1122.89 270.968 1119.18 271.826 1115.09 271.851 1107.56 271.714 1101.45 269.18 1096.73 264.251 1092.02 259.321 1089.59 252.817 1089.44 244.74 1089.59 236.668 1092.02 230.182 1096.73 225.285 1101.45 220.387 1107.56 217.872 1115.09 217.74ZM1050.91 217.74C1056.48 217.807 1061.57 219.178 1066.15 221.852 1070.74 224.526 1074.41 228.101 1077.16 232.576 1079.91 237.052 1081.32 242.025 1081.39 247.496 1081.32 252.968 1079.91 257.95 1077.16 262.444 1074.41 266.937 1070.74 270.53 1066.15 273.222 1061.57 275.914 1056.48 277.294 1050.91 277.363 1045.33 277.294 1040.25 275.914 1035.66 273.222 1031.07 270.53 1027.4 266.937 1024.65 262.444 1021.9 257.95 1020.49 252.968 1020.42 247.496 1020.49 242.025 1021.9 237.052 1024.65 232.576 1027.4 228.101 1031.07 224.526 1035.66 221.852 1040.25 219.178 1045.33 217.807 1050.91 217.74ZM955.264 217.74C962.881 217.838 968.839 220.036 973.137 224.335 977.434 228.634 979.621 234.445 979.696 241.768L979.696 276.04 966.609 276.04 966.609 269.217C964.443 271.867 961.753 273.886 958.541 275.271 955.328 276.656 952.032 277.353 948.655 277.363 942.471 277.294 937.418 275.642 933.494 272.407 929.57 269.171 927.544 264.763 927.416 259.181 927.585 253.47 929.859 248.905 934.237 245.486 938.614 242.067 944.081 240.314 950.637 240.227 953.244 240.232 955.906 240.498 958.623 241.026 961.34 241.553 964.002 242.314 966.609 243.309L966.609 241.768C966.673 238.33 965.636 235.333 963.497 232.777 961.359 230.221 957.733 228.878 952.62 228.749 949.919 228.777 947.28 229.191 944.703 229.991 942.127 230.791 939.627 231.812 937.204 233.053L932.585 223.685C936.595 221.703 940.483 220.217 944.25 219.226 948.017 218.235 951.688 217.74 955.264 217.74ZM848.612 217.74C856.229 217.838 862.187 220.036 866.485 224.335 870.783 228.634 872.969 234.445 873.044 241.768L873.044 276.04 859.957 276.04 859.957 269.217C857.791 271.867 855.101 273.886 851.888 275.271 848.676 276.656 845.38 277.353 842.002 277.363 835.819 277.294 830.766 275.642 826.842 272.407 822.918 269.171 820.892 264.763 820.764 259.181 820.933 253.47 823.207 248.905 827.585 245.486 831.962 242.067 837.429 240.314 843.985 240.227 846.592 240.232 849.254 240.498 851.971 241.026 854.688 241.553 857.35 242.314 859.957 243.309L859.957 241.768C860.021 238.33 858.984 235.333 856.845 232.777 854.706 230.221 851.081 228.878 845.968 228.749 843.267 228.777 840.628 229.191 838.051 229.991 835.475 230.791 832.975 231.812 830.552 233.053L825.933 223.685C829.943 221.703 833.831 220.217 837.598 219.226 841.365 218.235 845.036 217.74 848.612 217.74ZM707.556 217.74C715.173 217.838 721.131 220.036 725.429 224.335 729.727 228.634 731.913 234.445 731.988 241.768L731.988 276.04 718.901 276.04 718.901 269.217C716.735 271.867 714.045 273.886 710.832 275.271 707.62 276.656 704.324 277.353 700.946 277.363 694.763 277.294 689.71 275.642 685.786 272.407 681.862 269.171 679.836 264.763 679.708 259.181 679.877 253.47 682.15 248.905 686.529 245.486 690.906 242.067 696.373 240.314 702.929 240.227 705.536 240.232 708.198 240.498 710.915 241.026 713.632 241.553 716.294 242.314 718.901 243.309L718.901 241.768C718.965 238.33 717.928 235.333 715.789 232.777 713.65 230.221 710.025 228.878 704.912 228.749 702.211 228.777 699.572 229.191 696.995 229.991 694.419 230.791 691.919 231.812 689.496 233.053L684.877 223.685C688.887 221.703 692.775 220.217 696.542 219.226 700.308 218.235 703.98 217.74 707.556 217.74ZM600.903 217.74C608.521 217.838 614.479 220.036 618.776 224.335 623.074 228.634 625.261 234.445 625.336 241.768L625.336 276.04 612.249 276.04 612.249 269.217C610.082 271.867 607.393 273.886 604.18 275.271 600.967 276.656 597.672 277.353 594.294 277.363 588.111 277.294 583.057 275.642 579.133 272.407 575.21 269.171 573.184 264.763 573.056 259.181 573.225 253.47 575.498 248.905 579.876 245.486 584.254 242.067 589.721 240.314 596.277 240.227 598.884 240.232 601.546 240.498 604.263 241.026 606.98 241.553 609.642 242.314 612.249 243.309L612.249 241.768C612.313 238.33 611.276 235.333 609.137 232.777 606.998 230.221 603.373 228.878 598.259 228.749 595.558 228.777 592.92 229.191 590.343 229.991 587.767 230.791 585.267 231.812 582.844 233.053L578.225 223.685C582.235 221.703 586.123 220.217 589.89 219.226 593.656 218.235 597.328 217.74 600.903 217.74ZM508.748 212.766 508.748 263.597 523.065 263.597C531.185 263.466 537.714 261.082 542.654 256.443 547.594 251.806 550.131 245.7 550.267 238.126 550.131 230.557 547.594 224.47 542.654 219.863 537.714 215.258 531.185 212.892 523.065 212.766ZM893.287 203.409 906.375 203.409 906.375 219.063 919.255 219.063 919.255 230.182 906.375 230.182 906.375 259.296C906.409 261.26 906.946 262.845 907.985 264.051 909.024 265.257 910.358 265.877 911.989 265.912 913.159 265.9 914.233 265.703 915.21 265.319 916.187 264.936 916.985 264.435 917.604 263.817L921.457 272.848C919.824 274.241 917.944 275.337 915.815 276.138 913.687 276.938 911.531 277.346 909.347 277.363 904.539 277.278 900.679 275.74 897.769 272.751 894.859 269.761 893.365 265.827 893.287 260.949L893.287 230.182 885.03 230.182 885.03 219.063 893.287 219.063ZM645.579 203.409 658.667 203.409 658.667 219.063 671.547 219.063 671.547 230.182 658.667 230.182 658.667 259.296C658.701 261.26 659.238 262.845 660.276 264.051 661.316 265.257 662.651 265.877 664.281 265.912 665.451 265.9 666.524 265.703 667.501 265.319 668.478 264.936 669.277 264.435 669.896 263.817L673.749 272.848C672.116 274.241 670.235 275.337 668.107 276.138 665.978 276.938 663.822 277.346 661.639 277.363 656.831 277.278 652.971 275.74 650.061 272.751 647.151 269.761 645.657 265.827 645.579 260.949L645.579 230.182 637.322 230.182 637.322 219.063 645.579 219.063ZM495 200.323 521.633 200.323C530.029 200.379 537.415 202.004 543.789 205.199 550.163 208.393 555.148 212.818 558.745 218.475 562.342 224.132 564.172 230.682 564.234 238.126 564.172 245.571 562.342 252.131 558.745 257.806 555.148 263.48 550.163 267.923 543.789 271.135 537.415 274.347 530.029 275.982 521.633 276.04L495 276.04ZM995.866 199 1009.28 199 1009.28 276.04 995.866 276.04ZM785.466 199C791.064 199.041 796.298 200.143 801.167 202.303 806.037 204.464 810.307 207.438 813.979 211.223L804.181 220.374C801.833 217.642 799.044 215.497 795.814 213.937 792.585 212.377 789.135 211.583 785.466 211.553 780.746 211.614 776.448 212.84 772.573 215.232 768.697 217.625 765.598 220.82 763.276 224.817 760.954 228.814 759.763 233.251 759.704 238.126 759.763 243.037 760.954 247.5 763.276 251.513 765.598 255.526 768.697 258.73 772.573 261.126 776.448 263.522 780.746 264.75 785.466 264.81 789.181 264.78 792.649 263.985 795.869 262.425 799.089 260.865 801.897 258.72 804.291 255.988L813.979 265.03C810.307 268.868 806.037 271.873 801.167 274.045 796.298 276.218 791.064 277.323 785.466 277.363 778.182 277.272 771.552 275.458 765.575 271.919 759.598 268.38 754.82 263.66 751.241 257.757 747.662 251.853 745.827 245.31 745.736 238.126 745.827 230.944 747.662 224.409 751.241 218.524 754.82 212.639 759.598 207.936 765.575 204.415 771.552 200.894 778.182 199.089 785.466 199Z" fill="#FFFFFF" fill-rule="evenodd"/></g></svg>