<svg width="260" height="260" xmlns="http://www.w3.org/2000/svg" xmlns:xlink="http://www.w3.org/1999/xlink" xml:space="preserve" overflow="hidden"><g><path d="M0 9.99997C-1.27313e-15 4.47714 4.47714-1.27313e-15 9.99997-2.54626e-15 15.5228-5.09252e-15 19.9999 4.47714 19.9999 9.99997 19.9999 15.5228 15.5228 19.9999 9.99997 19.9999 4.47714 19.9999-6.36565e-15 15.5228 0 9.99997Z" stroke="#000000" stroke-width="4.58333" stroke-miterlimit="8" fill="none" fill-rule="evenodd" transform="matrix(6.12323e-17 1 1 -6.12323e-17 39.5 39.5)"/><path d="M0 10.5C-1.27313e-15 4.701 4.47714-1.33679e-15 9.99997-2.67358e-15 15.5228-5.34715e-15 19.9999 4.701 19.9999 10.5 19.9999 16.299 15.5228 21 9.99997 21 4.47714 21-6.36565e-15 16.299 0 10.5Z" stroke="#000000" stroke-width="4.58333" stroke-miterlimit="8" fill="none" fill-rule="evenodd" transform="matrix(6.12323e-17 1 1 -6.12323e-17 79.4997 39.5002)"/><path d="M0 9.99997C-1.27313e-15 4.47714 4.47714-1.27313e-15 9.99997-2.54626e-15 15.5228-5.09252e-15 19.9999 4.47714 19.9999 9.99997 19.9999 15.5228 15.5228 19.9999 9.99997 19.9999 4.47714 19.9999-6.36565e-15 15.5228 0 9.99997Z" stroke="#000000" stroke-width="4.58333" stroke-miterlimit="8" fill="none" fill-rule="evenodd" transform="matrix(6.12323e-17 1 1 -6.12323e-17 120.5 39.5)"/><path d="M0 9.99997C-1.27313e-15 4.47714 4.47714-1.27313e-15 9.99997-2.54626e-15 15.5228-5.09252e-15 19.9999 4.47714 19.9999 9.99997 19.9999 15.5228 15.5228 19.9999 9.99997 19.9999 4.47714 19.9999-6.36565e-15 15.5228 0 9.99997Z" stroke="#000000" stroke-width="4.58333" stroke-miterlimit="8" fill="none" fill-rule="evenodd" transform="matrix(6.12323e-17 1 1 -6.12323e-17 160.5 39.5)"/><path d="M0 9.99997C-1.27313e-15 4.47714 4.47714-1.27313e-15 9.99997-2.54626e-15 15.5228-5.09252e-15 19.9999 4.47714 19.9999 9.99997 19.9999 15.5228 15.5228 19.9999 9.99997 19.9999 4.47714 19.9999-6.36565e-15 15.5228 0 9.99997Z" stroke="#009FE3" stroke-width="4.58333" stroke-miterlimit="8" fill="#009FE3" fill-rule="evenodd" transform="matrix(6.12323e-17 1 1 -6.12323e-17 201.5 39.5)"/><path d="M0 9.99997C-1.33679e-15 4.47714 4.701-1.27313e-15 10.5-2.54626e-15 16.299-5.09252e-15 21 4.47714 21 9.99997 21 15.5228 16.299 19.9999 10.5 19.9999 4.701 19.9999-6.68394e-15 15.5228 0 9.99997Z" stroke="#000000" stroke-width="4.58333" stroke-miterlimit="8" fill="none" fill-rule="evenodd" transform="matrix(6.12323e-17 1 1 -6.12323e-17 39.5002 79.4997)"/><path d="M0 10.5C-1.33679e-15 4.701 4.701-1.33679e-15 10.5-2.67358e-15 16.299-5.34715e-15 21 4.701 21 10.5 21 16.299 16.299 21 10.5 21 4.701 21-6.68394e-15 16.299 0 10.5Z" stroke="#009FE3" stroke-width="4.58333" stroke-miterlimit="8" fill="#009FE3" fill-rule="evenodd" transform="matrix(6.12323e-17 1 1 -6.12323e-17 79.4999 79.4999)"/><path d="M0 9.99997C-1.33679e-15 4.47714 4.701-1.27313e-15 10.5-2.54626e-15 16.299-5.09252e-15 21 4.47714 21 9.99997 21 15.5228 16.299 19.9999 10.5 19.9999 4.701 19.9999-6.68394e-15 15.5228 0 9.99997Z" stroke="#000000" stroke-width="4.58333" stroke-miterlimit="8" fill="none" fill-rule="evenodd" transform="matrix(6.12323e-17 1 1 -6.12323e-17 120.5 79.4997)"/><path d="M0 9.99997C-1.33679e-15 4.47714 4.701-1.27313e-15 10.5-2.54626e-15 16.299-5.09252e-15 21 4.47714 21 9.99997 21 15.5228 16.299 19.9999 10.5 19.9999 4.701 19.9999-6.68394e-15 15.5228 0 9.99997Z" stroke="#000000" stroke-width="4.58333" stroke-miterlimit="8" fill="none" fill-rule="evenodd" transform="matrix(6.12323e-17 1 1 -6.12323e-17 160.5 79.4997)"/><path d="M0 9.99997C-1.33679e-15 4.47714 4.701-1.27313e-15 10.5-2.54626e-15 16.299-5.09252e-15 21 4.47714 21 9.99997 21 15.5228 16.299 19.9999 10.5 19.9999 4.701 19.9999-6.68394e-15 15.5228 0 9.99997Z" stroke="#009FE3" stroke-width="4.58333" stroke-miterlimit="8" fill="#009FE3" fill-rule="evenodd" transform="matrix(6.12323e-17 1 1 -6.12323e-17 201.5 79.4997)"/><path d="M0 9.99997C-1.27313e-15 4.47714 4.47714-1.27313e-15 9.99997-2.54626e-15 15.5228-5.09252e-15 19.9999 4.47714 19.9999 9.99997 19.9999 15.5228 15.5228 19.9999 9.99997 19.9999 4.47714 19.9999-6.36565e-15 15.5228 0 9.99997Z" stroke="#009FE3" stroke-width="4.58333" stroke-miterlimit="8" fill="#009FE3" fill-rule="evenodd" transform="matrix(6.12323e-17 1 1 -6.12323e-17 39.5 120.5)"/><path d="M0 10.5C-1.27313e-15 4.701 4.47714-1.33679e-15 9.99997-2.67358e-15 15.5228-5.34715e-15 19.9999 4.701 19.9999 10.5 19.9999 16.299 15.5228 21 9.99997 21 4.47714 21-6.36565e-15 16.299 0 10.5Z" stroke="#000000" stroke-width="4.58333" stroke-miterlimit="8" fill="none" fill-rule="evenodd" transform="matrix(6.12323e-17 1 1 -6.12323e-17 79.4997 120.5)"/><path d="M0 9.99997C-1.27313e-15 4.47714 4.47714-1.27313e-15 9.99997-2.54626e-15 15.5228-5.09252e-15 19.9999 4.47714 19.9999 9.99997 19.9999 15.5228 15.5228 19.9999 9.99997 19.9999 4.47714 19.9999-6.36565e-15 15.5228 0 9.99997Z" stroke="#009FE3" stroke-width="4.58333" stroke-miterlimit="8" fill="#009FE3" fill-rule="evenodd" transform="matrix(6.12323e-17 1 1 -6.12323e-17 120.5 120.5)"/><path d="M0 9.99997C-1.27313e-15 4.47714 4.47714-1.27313e-15 9.99997-2.54626e-15 15.5228-5.09252e-15 19.9999 4.47714 19.9999 9.99997 19.9999 15.5228 15.5228 19.9999 9.99997 19.9999 4.47714 19.9999-6.36565e-15 15.5228 0 9.99997Z" stroke="#000000" stroke-width="4.58333" stroke-miterlimit="8" fill="none" fill-rule="evenodd" transform="matrix(6.12323e-17 1 1 -6.12323e-17 160.5 120.5)"/><path d="M0 9.99997C-1.27313e-15 4.47714 4.47714-1.27313e-15 9.99997-2.54626e-15 15.5228-5.09252e-15 19.9999 4.47714 19.9999 9.99997 19.9999 15.5228 15.5228 19.9999 9.99997 19.9999 4.47714 19.9999-6.36565e-15 15.5228 0 9.99997Z" stroke="#009FE3" stroke-width="4.58333" stroke-miterlimit="8" fill="#009FE3" fill-rule="evenodd" transform="matrix(6.12323e-17 1 1 -6.12323e-17 201.5 120.5)"/><path d="M0 9.99997C-1.27313e-15 4.47714 4.47714-1.27313e-15 9.99997-2.54626e-15 15.5228-5.09252e-15 19.9999 4.47714 19.9999 9.99997 19.9999 15.5228 15.5228 19.9999 9.99997 19.9999 4.47714 19.9999-6.36565e-15 15.5228 0 9.99997Z" stroke="#009FE3" stroke-width="4.58333" stroke-miterlimit="8" fill="#009FE3" fill-rule="evenodd" transform="matrix(6.12323e-17 1 1 -6.12323e-17 39.5 160.5)"/><path d="M0 10.5C-1.27313e-15 4.701 4.47714-1.33679e-15 9.99997-2.67358e-15 15.5228-5.34715e-15 19.9999 4.701 19.9999 10.5 19.9999 16.299 15.5228 21 9.99997 21 4.47714 21-6.36565e-15 16.299 0 10.5Z" stroke="#000000" stroke-width="4.58333" stroke-miterlimit="8" fill="none" fill-rule="evenodd" transform="matrix(6.12323e-17 1 1 -6.12323e-17 79.4997 160.5)"/><path d="M0 9.99997C-1.27313e-15 4.47714 4.47714-1.27313e-15 9.99997-2.54626e-15 15.5228-5.09252e-15 19.9999 4.47714 19.9999 9.99997 19.9999 15.5228 15.5228 19.9999 9.99997 19.9999 4.47714 19.9999-6.36565e-15 15.5228 0 9.99997Z" stroke="#000000" stroke-width="4.58333" stroke-miterlimit="8" fill="none" fill-rule="evenodd" transform="matrix(6.12323e-17 1 1 -6.12323e-17 120.5 160.5)"/><path d="M0 9.99997C-1.27313e-15 4.47714 4.47714-1.27313e-15 9.99997-2.54626e-15 15.5228-5.09252e-15 19.9999 4.47714 19.9999 9.99997 19.9999 15.5228 15.5228 19.9999 9.99997 19.9999 4.47714 19.9999-6.36565e-15 15.5228 0 9.99997Z" stroke="#009FE3" stroke-width="4.58333" stroke-miterlimit="8" fill="#009FE3" fill-rule="evenodd" transform="matrix(6.12323e-17 1 1 -6.12323e-17 160.5 160.5)"/><path d="M0 9.99997C-1.27313e-15 4.47714 4.47714-1.27313e-15 9.99997-2.54626e-15 15.5228-5.09252e-15 19.9999 4.47714 19.9999 9.99997 19.9999 15.5228 15.5228 19.9999 9.99997 19.9999 4.47714 19.9999-6.36565e-15 15.5228 0 9.99997Z" stroke="#000000" stroke-width="4.58333" stroke-miterlimit="8" fill="none" fill-rule="evenodd" transform="matrix(6.12323e-17 1 1 -6.12323e-17 201.5 160.5)"/><path d="M0 9.99997C-1.27313e-15 4.47714 4.47714-1.27313e-15 9.99997-2.54626e-15 15.5228-5.09252e-15 19.9999 4.47714 19.9999 9.99997 19.9999 15.5228 15.5228 19.9999 9.99997 19.9999 4.47714 19.9999-6.36565e-15 15.5228 0 9.99997Z" stroke="#009FE3" stroke-width="4.58333" stroke-miterlimit="8" fill="#009FE3" fill-rule="evenodd" transform="matrix(6.12323e-17 1 1 -6.12323e-17 39.5 201.5)"/><path d="M0 10.5C-1.27313e-15 4.701 4.47714-1.33679e-15 9.99997-2.67358e-15 15.5228-5.34715e-15 19.9999 4.701 19.9999 10.5 19.9999 16.299 15.5228 21 9.99997 21 4.47714 21-6.36565e-15 16.299 0 10.5Z" stroke="#000000" stroke-width="4.58333" stroke-miterlimit="8" fill="none" fill-rule="evenodd" transform="matrix(6.12323e-17 1 1 -6.12323e-17 79.4997 201.5)"/><path d="M0 9.99997C-1.27313e-15 4.47714 4.47714-1.27313e-15 9.99997-2.54626e-15 15.5228-5.09252e-15 19.9999 4.47714 19.9999 9.99997 19.9999 15.5228 15.5228 19.9999 9.99997 19.9999 4.47714 19.9999-6.36565e-15 15.5228 0 9.99997Z" stroke="#000000" stroke-width="4.58333" stroke-miterlimit="8" fill="none" fill-rule="evenodd" transform="matrix(6.12323e-17 1 1 -6.12323e-17 120.5 201.5)"/><path d="M0 9.99997C-1.27313e-15 4.47714 4.47714-1.27313e-15 9.99997-2.54626e-15 15.5228-5.09252e-15 19.9999 4.47714 19.9999 9.99997 19.9999 15.5228 15.5228 19.9999 9.99997 19.9999 4.47714 19.9999-6.36565e-15 15.5228 0 9.99997Z" stroke="#000000" stroke-width="4.58333" stroke-miterlimit="8" fill="none" fill-rule="evenodd" transform="matrix(6.12323e-17 1 1 -6.12323e-17 160.5 201.5)"/><path d="M0 9.99997C-1.27313e-15 4.47714 4.47714-1.27313e-15 9.99997-2.54626e-15 15.5228-5.09252e-15 19.9999 4.47714 19.9999 9.99997 19.9999 15.5228 15.5228 19.9999 9.99997 19.9999 4.47714 19.9999-6.36565e-15 15.5228 0 9.99997Z" stroke="#000000" stroke-width="4.58333" stroke-miterlimit="8" fill="none" fill-rule="evenodd" transform="matrix(6.12323e-17 1 1 -6.12323e-17 201.5 201.5)"/><path d="M49.5 140.5 49.5004 201.13" stroke="#009FE3" stroke-width="4.58333" stroke-miterlimit="8" fill="none" fill-rule="evenodd"/><path d="M56.4999 123.629 82.6292 97.5001" stroke="#009FE3" stroke-width="4.58333" stroke-miterlimit="8" fill="none" fill-rule="evenodd"/><path d="M164.049 164.049 97.5001 97.5001" stroke="#009FE3" stroke-width="4.58333" stroke-miterlimit="8" fill="none" fill-rule="evenodd"/><path d="M0 0 26.1293 26.1293" stroke="#009FE3" stroke-width="4.58333" stroke-miterlimit="8" fill="none" fill-rule="evenodd" transform="matrix(-1 0 0 1 203.629 137.5)"/><path d="M211.5 59.5 211.5 120.13" stroke="#009FE3" stroke-width="4.58333" stroke-miterlimit="8" fill="none" fill-rule="evenodd"/></g></svg>