<?xml version="1.0" encoding="UTF-8"?>
<svg xmlns="http://www.w3.org/2000/svg" xmlns:xlink="http://www.w3.org/1999/xlink" width="1234px" height="338px" viewBox="0 0 927 254" version="1.1">
<g id="surface1">
<path style="fill:none;stroke-width:4.58333;stroke-linecap:butt;stroke-linejoin:miter;stroke:rgb(100%,100%,100%);stroke-opacity:1;stroke-miterlimit:8;" d="M 0.00151404 12.997638 C 0.00151404 5.821769 5.818166 -0.00212574 13.001914 -0.00212574 C 20.180463 -0.00212574 26.002314 5.821769 26.002314 12.997638 C 26.002314 20.178708 20.180463 26.002602 13.001914 26.002602 C 5.818166 26.002602 0.00151404 20.178708 0.00151404 12.997638 Z M 0.00151404 12.997638 " transform="matrix(0.000000000000000046,0.751479,0.751216,-0.000000000000000046,58.970347,58.99105)"/>
<path style="fill:none;stroke-width:4.58333;stroke-linecap:butt;stroke-linejoin:miter;stroke:rgb(100%,100%,100%);stroke-opacity:1;stroke-miterlimit:8;" d="M 0.00171241 13.001795 C 0.00171241 5.820725 5.818365 0.00203108 13.002112 0.00203108 C 20.180662 0.00203108 26.002512 5.820725 26.002512 13.001795 C 26.002512 20.177665 20.180662 26.001559 13.002112 26.001559 C 5.818365 26.001559 0.00171241 20.177665 0.00171241 13.001795 Z M 0.00171241 13.001795 " transform="matrix(0.000000000000000046,0.751479,0.751216,-0.000000000000000046,98.03363,58.990901)"/>
<path style="fill:none;stroke-width:4.58333;stroke-linecap:butt;stroke-linejoin:miter;stroke:rgb(100%,100%,100%);stroke-opacity:1;stroke-miterlimit:8;" d="M 0.00151404 13.000851 C 0.00151404 5.819782 5.818166 0.00108718 13.001914 0.00108718 C 20.180463 0.00108718 26.002314 5.819782 26.002314 13.000851 C 26.002314 20.181921 20.180463 26.000615 13.001914 26.000615 C 5.818166 26.000615 0.00151404 20.181921 0.00151404 13.000851 Z M 0.00151404 13.000851 " transform="matrix(0.000000000000000046,0.751479,0.751216,-0.000000000000000046,137.09684,58.99105)"/>
<path style="fill-rule:evenodd;fill:rgb(0%,62.352943%,89.019608%);fill-opacity:1;stroke-width:4.58333;stroke-linecap:butt;stroke-linejoin:miter;stroke:rgb(0%,62.352943%,89.019608%);stroke-opacity:1;stroke-miterlimit:8;" d="M 0.00151404 12.999907 C 0.00151404 5.818838 5.818166 0.000143271 13.001914 0.000143271 C 20.180463 0.000143271 26.002314 5.818838 26.002314 12.999907 C 26.002314 20.180977 20.180463 25.999671 13.001914 25.999671 C 5.818166 25.999671 0.00151404 20.180977 0.00151404 12.999907 Z M 0.00151404 12.999907 " transform="matrix(0.000000000000000046,0.751479,0.751216,-0.000000000000000046,176.160049,58.99105)"/>
<path style="fill:none;stroke-width:4.58333;stroke-linecap:butt;stroke-linejoin:miter;stroke:rgb(100%,100%,100%);stroke-opacity:1;stroke-miterlimit:8;" d="M -0.00218381 12.997837 C -0.00218381 5.821967 5.819667 -0.00192737 12.998216 -0.00192737 C 20.181964 -0.00192737 25.998616 5.821967 25.998616 12.997837 C 25.998616 20.178906 20.181964 25.997601 12.998216 25.997601 C 5.819667 25.997601 -0.00218381 20.178906 -0.00218381 12.997837 Z M -0.00218381 12.997837 " transform="matrix(0.000000000000000046,0.751479,0.751216,-0.000000000000000046,58.970198,98.068047)"/>
<path style="fill-rule:evenodd;fill:rgb(0%,62.352943%,89.019608%);fill-opacity:1;stroke-width:4.58333;stroke-linecap:butt;stroke-linejoin:miter;stroke:rgb(0%,62.352943%,89.019608%);stroke-opacity:1;stroke-miterlimit:8;" d="M -0.00218381 13.001795 C -0.00218381 5.820725 5.819667 0.00203108 12.998216 0.00203108 C 20.181964 0.00203108 25.998616 5.820725 25.998616 13.001795 C 25.998616 20.177665 20.181964 26.001559 12.998216 26.001559 C 5.819667 26.001559 -0.00218381 20.177665 -0.00218381 13.001795 Z M -0.00218381 13.001795 " transform="matrix(0.000000000000000046,0.751479,0.751216,-0.000000000000000046,98.03363,98.068047)"/>
<path style="fill:none;stroke-width:4.58333;stroke-linecap:butt;stroke-linejoin:miter;stroke:rgb(100%,100%,100%);stroke-opacity:1;stroke-miterlimit:8;" d="M -0.00218381 13.000851 C -0.00218381 5.819782 5.819667 0.00108718 12.998216 0.00108718 C 20.181964 0.00108718 25.998616 5.819782 25.998616 13.000851 C 25.998616 20.181921 20.181964 26.000615 12.998216 26.000615 C 5.819667 26.000615 -0.00218381 20.181921 -0.00218381 13.000851 Z M -0.00218381 13.000851 " transform="matrix(0.000000000000000046,0.751479,0.751216,-0.000000000000000046,137.09684,98.068047)"/>
<path style="fill-rule:evenodd;fill:rgb(0%,62.352943%,89.019608%);fill-opacity:1;stroke-width:4.58333;stroke-linecap:butt;stroke-linejoin:miter;stroke:rgb(0%,62.352943%,89.019608%);stroke-opacity:1;stroke-miterlimit:8;" d="M -0.00218381 12.999907 C -0.00218381 5.818838 5.819667 0.000143271 12.998216 0.000143271 C 20.181964 0.000143271 25.998616 5.818838 25.998616 12.999907 C 25.998616 20.180977 20.181964 25.999671 12.998216 25.999671 C 5.819667 25.999671 -0.00218381 20.180977 -0.00218381 12.999907 Z M -0.00218381 12.999907 " transform="matrix(0.000000000000000046,0.751479,0.751216,-0.000000000000000046,176.160049,98.068047)"/>
<path style="fill-rule:evenodd;fill:rgb(0%,62.352943%,89.019608%);fill-opacity:1;stroke-width:4.58333;stroke-linecap:butt;stroke-linejoin:miter;stroke:rgb(0%,62.352943%,89.019608%);stroke-opacity:1;stroke-miterlimit:8;" d="M -0.0005844 12.997638 C -0.0005844 5.821769 5.821266 -0.00212574 12.999815 -0.00212574 C 20.178365 -0.00212574 26.000215 5.821769 26.000215 12.997638 C 26.000215 20.178708 20.178365 26.002602 12.999815 26.002602 C 5.821266 26.002602 -0.0005844 20.178708 -0.0005844 12.997638 Z M -0.0005844 12.997638 " transform="matrix(0.000000000000000046,0.751479,0.751216,-0.000000000000000046,58.970347,137.14497)"/>
<path style="fill:none;stroke-width:4.58333;stroke-linecap:butt;stroke-linejoin:miter;stroke:rgb(100%,100%,100%);stroke-opacity:1;stroke-miterlimit:8;" d="M -0.0005844 13.001795 C -0.0005844 5.820725 5.821266 0.00203108 12.999815 0.00203108 C 20.178365 0.00203108 26.000215 5.820725 26.000215 13.001795 C 26.000215 20.177665 20.178365 26.001559 12.999815 26.001559 C 5.821266 26.001559 -0.0005844 20.177665 -0.0005844 13.001795 Z M -0.0005844 13.001795 " transform="matrix(0.000000000000000046,0.751479,0.751216,-0.000000000000000046,98.03363,137.14497)"/>
<path style="fill-rule:evenodd;fill:rgb(0%,62.352943%,89.019608%);fill-opacity:1;stroke-width:4.58333;stroke-linecap:butt;stroke-linejoin:miter;stroke:rgb(0%,62.352943%,89.019608%);stroke-opacity:1;stroke-miterlimit:8;" d="M -0.0005844 13.000851 C -0.0005844 5.819782 5.821266 0.00108718 12.999815 0.00108718 C 20.178365 0.00108718 26.000215 5.819782 26.000215 13.000851 C 26.000215 20.181921 20.178365 26.000615 12.999815 26.000615 C 5.821266 26.000615 -0.0005844 20.181921 -0.0005844 13.000851 Z M -0.0005844 13.000851 " transform="matrix(0.000000000000000046,0.751479,0.751216,-0.000000000000000046,137.09684,137.14497)"/>
<path style="fill:none;stroke-width:4.58333;stroke-linecap:butt;stroke-linejoin:miter;stroke:rgb(100%,100%,100%);stroke-opacity:1;stroke-miterlimit:8;" d="M -0.0005844 12.999907 C -0.0005844 5.818838 5.821266 0.000143271 12.999815 0.000143271 C 20.178365 0.000143271 26.000215 5.818838 26.000215 12.999907 C 26.000215 20.180977 20.178365 25.999671 12.999815 25.999671 C 5.821266 25.999671 -0.0005844 20.180977 -0.0005844 12.999907 Z M -0.0005844 12.999907 " transform="matrix(0.000000000000000046,0.751479,0.751216,-0.000000000000000046,176.160049,137.14497)"/>
<path style="fill-rule:evenodd;fill:rgb(0%,62.352943%,89.019608%);fill-opacity:1;stroke-width:4.58333;stroke-linecap:butt;stroke-linejoin:miter;stroke:rgb(0%,62.352943%,89.019608%);stroke-opacity:1;stroke-miterlimit:8;" d="M 0.00101501 12.997638 C 0.00101501 5.821769 5.822865 -0.00212574 13.001415 -0.00212574 C 20.179964 -0.00212574 26.001815 5.821769 26.001815 12.997638 C 26.001815 20.178708 20.179964 26.002602 13.001415 26.002602 C 5.822865 26.002602 0.00101501 20.178708 0.00101501 12.997638 Z M 0.00101501 12.997638 " transform="matrix(0.000000000000000046,0.751479,0.751216,-0.000000000000000046,58.970347,176.221893)"/>
<path style="fill:none;stroke-width:4.58333;stroke-linecap:butt;stroke-linejoin:miter;stroke:rgb(100%,100%,100%);stroke-opacity:1;stroke-miterlimit:8;" d="M 0.00101501 13.001795 C 0.00101501 5.820725 5.822865 0.00203108 13.001415 0.00203108 C 20.179964 0.00203108 26.001815 5.820725 26.001815 13.001795 C 26.001815 20.177665 20.179964 26.001559 13.001415 26.001559 C 5.822865 26.001559 0.00101501 20.177665 0.00101501 13.001795 Z M 0.00101501 13.001795 " transform="matrix(0.000000000000000046,0.751479,0.751216,-0.000000000000000046,98.03363,176.221893)"/>
<path style="fill:none;stroke-width:4.58333;stroke-linecap:butt;stroke-linejoin:miter;stroke:rgb(100%,100%,100%);stroke-opacity:1;stroke-miterlimit:8;" d="M 0.00101501 13.000851 C 0.00101501 5.819782 5.822865 0.00108718 13.001415 0.00108718 C 20.179964 0.00108718 26.001815 5.819782 26.001815 13.000851 C 26.001815 20.181921 20.179964 26.000615 13.001415 26.000615 C 5.822865 26.000615 0.00101501 20.181921 0.00101501 13.000851 Z M 0.00101501 13.000851 " transform="matrix(0.000000000000000046,0.751479,0.751216,-0.000000000000000046,137.09684,176.221893)"/>
<path style="fill:none;stroke-width:4.58333;stroke-linecap:butt;stroke-linejoin:miter;stroke:rgb(100%,100%,100%);stroke-opacity:1;stroke-miterlimit:8;" d="M 0.00101501 12.999907 C 0.00101501 5.818838 5.822865 0.000143271 13.001415 0.000143271 C 20.179964 0.000143271 26.001815 5.818838 26.001815 12.999907 C 26.001815 20.180977 20.179964 25.999671 13.001415 25.999671 C 5.822865 25.999671 0.00101501 20.180977 0.00101501 12.999907 Z M 0.00101501 12.999907 " transform="matrix(0.000000000000000046,0.751479,0.751216,-0.000000000000000046,176.160049,176.221893)"/>
<path style="fill:none;stroke-width:4.58333;stroke-linecap:butt;stroke-linejoin:miter;stroke:rgb(0%,62.352943%,89.019608%);stroke-opacity:1;stroke-miterlimit:8;" d="M 91.497539 208.500215 L 91.502739 234.485421 " transform="matrix(0.751216,0,0,0.751479,0,0)"/>
<path style="fill:none;stroke-width:4.58333;stroke-linecap:butt;stroke-linejoin:miter;stroke:rgb(0%,62.352943%,89.019608%);stroke-opacity:1;stroke-miterlimit:8;" d="M 100.498576 186.096487 L 134.095166 152.501292 " transform="matrix(0.751216,0,0,0.751479,0,0)"/>
<path style="fill:none;stroke-width:4.58333;stroke-linecap:butt;stroke-linejoin:miter;stroke:rgb(0%,62.352943%,89.019608%);stroke-opacity:1;stroke-miterlimit:8;" d="M -0.00148623 0.000779268 L 33.593709 33.59217 " transform="matrix(-0.000000000000000046,-0.751479,-0.751216,0.000000000000000046,139.79746,139.846539)"/>
<path style="fill:none;stroke-width:4.58333;stroke-linecap:butt;stroke-linejoin:miter;stroke:rgb(0%,62.352943%,89.019608%);stroke-opacity:1;stroke-miterlimit:8;" d="M 238.093278 152.501292 L 204.501888 186.096487 " transform="matrix(0.751216,0,0,0.751479,0,0)"/>
<path style="fill:none;stroke-width:4.58333;stroke-linecap:butt;stroke-linejoin:miter;stroke:rgb(0%,62.352943%,89.019608%);stroke-opacity:1;stroke-miterlimit:8;" d="M 0.00221457 -0.000092705 L 25.982222 -0.000092705 " transform="matrix(0.000000000000000046,0.751479,0.751216,-0.000000000000000046,185.925851,78.529586)"/>
<path style=" stroke:none;fill-rule:evenodd;fill:rgb(100%,100%,100%);fill-opacity:1;" d="M 368.261719 118.6875 C 362.773438 118.789062 358.347656 120.71875 354.980469 124.464844 C 351.617188 128.210938 349.882812 133.144531 349.789062 139.265625 C 349.882812 145.386719 351.617188 150.339844 354.980469 154.125 C 358.347656 157.910156 362.773438 159.855469 368.261719 159.96875 C 373.683594 159.855469 378.03125 157.910156 381.3125 154.125 C 384.59375 150.339844 386.277344 145.386719 386.363281 139.265625 C 386.277344 133.144531 384.59375 128.210938 381.3125 124.464844 C 378.03125 120.71875 373.683594 118.789062 368.261719 118.6875 Z M 412.285156 107.300781 L 426.894531 107.300781 L 426.894531 145.097656 C 426.960938 149.511719 428.222656 153.074219 430.675781 155.785156 C 433.128906 158.496094 436.375 159.890625 440.410156 159.96875 C 444.464844 159.886719 447.917969 158.714844 450.761719 156.453125 C 453.609375 154.1875 455.324219 151.3125 455.910156 147.824219 L 455.910156 107.300781 L 471.011719 107.300781 L 471.011719 171.351562 L 455.910156 171.351562 L 455.910156 162.8125 C 453.875 165.832031 451.125 168.246094 447.664062 170.054688 C 444.203125 171.867188 440.335938 172.792969 436.070312 172.839844 C 428.953125 172.714844 423.238281 170.398438 418.925781 165.890625 C 414.613281 161.386719 412.402344 155.445312 412.285156 148.070312 Z M 242.132812 107.300781 L 257.234375 107.300781 L 257.234375 171.351562 L 242.132812 171.351562 Z M 302.894531 105.8125 C 310.011719 105.9375 315.726562 108.253906 320.035156 112.761719 C 324.347656 117.269531 326.5625 123.207031 326.675781 130.582031 L 326.675781 171.351562 L 312.070312 171.351562 L 312.070312 133.554688 C 312 129.140625 310.742188 125.578125 308.285156 122.867188 C 305.832031 120.15625 302.589844 118.761719 298.554688 118.6875 C 294.496094 118.765625 291.046875 119.9375 288.199219 122.203125 C 285.351562 124.464844 283.636719 127.34375 283.054688 130.828125 L 283.054688 171.351562 L 267.949219 171.351562 L 267.949219 107.300781 L 283.054688 107.300781 L 283.054688 115.839844 C 285.089844 112.820312 287.839844 110.40625 291.300781 108.597656 C 294.761719 106.789062 298.625 105.859375 302.894531 105.8125 Z M 386.363281 84.746094 L 401.46875 84.746094 L 401.46875 171.351562 L 386.363281 171.351562 L 386.363281 161.453125 C 383.804688 165.070312 380.648438 167.863281 376.894531 169.839844 C 373.140625 171.8125 368.902344 172.816406 364.171875 172.839844 C 355.519531 172.671875 348.5 169.542969 343.121094 163.445312 C 337.742188 157.347656 334.972656 149.289062 334.808594 139.265625 C 334.972656 129.300781 337.742188 121.277344 343.121094 115.195312 C 348.5 109.109375 355.519531 105.984375 364.171875 105.8125 C 368.902344 105.839844 373.140625 106.839844 376.894531 108.8125 C 380.648438 110.789062 383.804688 113.585938 386.363281 117.199219 Z M 249.808594 80.410156 C 252.222656 80.476562 254.234375 81.328125 255.84375 82.960938 C 257.453125 84.59375 258.289062 86.589844 258.351562 88.949219 C 258.289062 91.316406 257.453125 93.332031 255.84375 95.003906 C 254.234375 96.671875 252.222656 97.542969 249.808594 97.617188 C 247.332031 97.542969 245.285156 96.671875 243.664062 95.003906 C 242.039062 93.332031 241.199219 91.316406 241.140625 88.949219 C 241.199219 86.589844 242.039062 84.59375 243.664062 82.960938 C 245.285156 81.328125 247.332031 80.476562 249.808594 80.410156 Z M 249.808594 80.410156 "/>
<path style=" stroke:none;fill-rule:evenodd;fill:rgb(0%,62.352943%,89.019608%);fill-opacity:1;" d="M 724.300781 143.125 C 721.386719 143.171875 718.980469 143.980469 717.085938 145.550781 C 715.1875 147.121094 714.207031 149.175781 714.140625 151.710938 C 714.191406 154.230469 715.082031 156.222656 716.820312 157.683594 C 718.558594 159.148438 720.84375 159.894531 723.683594 159.925781 C 726.867188 159.902344 729.636719 159.203125 732 157.824219 C 734.363281 156.449219 735.804688 154.535156 736.324219 152.085938 L 736.324219 145.238281 C 734.683594 144.605469 732.820312 144.097656 730.730469 143.714844 C 728.640625 143.332031 726.5 143.132812 724.300781 143.125 Z M 661.3125 122.484375 C 658.121094 122.515625 655.339844 123.386719 652.972656 125.097656 C 650.601562 126.8125 648.839844 129.179688 647.695312 132.199219 L 673.691406 132.199219 C 672.8125 129.230469 671.324219 126.882812 669.21875 125.144531 C 667.117188 123.410156 664.484375 122.523438 661.3125 122.484375 Z M 802.777344 105.589844 C 807.089844 105.625 810.996094 106.613281 814.492188 108.554688 C 817.984375 110.5 820.808594 113.195312 822.949219 116.644531 C 824.746094 113.25 827.449219 110.570312 831.0625 108.601562 C 834.683594 106.636719 838.875 105.632812 843.644531 105.589844 C 850.488281 105.714844 856.167969 108.039062 860.660156 112.5625 C 865.160156 117.085938 867.488281 123.042969 867.652344 130.441406 L 867.652344 171.472656 L 847.613281 171.472656 L 847.613281 134.171875 C 847.558594 130.882812 846.605469 128.230469 844.757812 126.214844 C 842.910156 124.199219 840.476562 123.164062 837.449219 123.105469 C 834.230469 123.164062 831.648438 124.132812 829.6875 126.011719 C 827.726562 127.890625 826.71875 130.320312 826.667969 133.300781 L 826.667969 171.472656 L 806.617188 171.472656 L 806.617188 134.171875 C 806.566406 130.882812 805.617188 128.230469 803.769531 126.214844 C 801.921875 124.199219 799.480469 123.164062 796.453125 123.105469 C 793.246094 123.164062 790.65625 124.132812 788.695312 126.011719 C 786.734375 127.890625 785.726562 130.320312 785.671875 133.300781 L 785.671875 171.347656 L 764.761719 171.347656 L 764.761719 107.082031 L 785.671875 107.082031 L 785.671875 115.402344 C 787.257812 112.332031 789.519531 109.933594 792.457031 108.214844 C 795.402344 106.492188 798.84375 105.617188 802.777344 105.589844 Z M 727.648438 105.589844 C 736.054688 105.667969 742.921875 108.121094 748.246094 112.953125 C 753.574219 117.785156 756.316406 124.53125 756.488281 133.191406 L 756.488281 171.347656 L 736.324219 171.347656 L 736.324219 165.886719 C 734.042969 168.132812 731.351562 169.847656 728.253906 171.039062 C 725.152344 172.230469 721.933594 172.828125 718.601562 172.839844 C 711.628906 172.746094 705.863281 170.851562 701.304688 167.15625 C 696.746094 163.460938 694.382812 158.519531 694.21875 152.332031 C 694.402344 145.945312 697.035156 140.8125 702.109375 136.933594 C 707.183594 133.054688 713.589844 131.058594 721.328125 130.953125 C 723.703125 130.960938 726.171875 131.230469 728.734375 131.761719 C 731.292969 132.296875 733.824219 133.058594 736.324219 134.058594 L 736.324219 133.191406 C 736.289062 129.703125 735.054688 126.875 732.621094 124.710938 C 730.1875 122.546875 726.753906 121.429688 722.320312 121.363281 C 719.332031 121.382812 716.570312 121.8125 714.035156 122.65625 C 711.5 123.5 708.894531 124.648438 706.222656 126.097656 L 699.664062 112.917969 C 704.109375 110.65625 708.644531 108.875 713.277344 107.578125 C 717.910156 106.277344 722.703125 105.617188 727.648438 105.589844 Z M 660.941406 105.589844 C 671.164062 105.699219 679.066406 109.207031 684.648438 116.105469 C 690.230469 123.003906 693.058594 132.632812 693.128906 144.988281 L 647.445312 144.988281 C 648.464844 148.273438 650.171875 150.886719 652.570312 152.832031 C 654.964844 154.777344 657.878906 155.773438 661.3125 155.820312 C 663.84375 155.804688 666.398438 155.308594 668.972656 154.34375 C 671.550781 153.375 673.824219 152.042969 675.796875 150.34375 L 688.179688 162.902344 C 685.1875 165.871094 681.292969 168.257812 676.496094 170.058594 C 671.695312 171.863281 666.839844 172.789062 661.929688 172.839844 C 651.832031 172.667969 643.617188 169.503906 637.292969 163.351562 C 630.96875 157.195312 627.710938 149.089844 627.511719 139.027344 C 627.699219 129.09375 630.855469 121.078125 636.984375 114.988281 C 643.113281 108.894531 651.097656 105.761719 660.941406 105.589844 Z M 626.261719 105.589844 L 626.261719 123.105469 C 619.699219 123.167969 614.585938 124.90625 610.921875 128.3125 C 607.253906 131.71875 605.390625 136.410156 605.332031 142.386719 L 605.207031 142.136719 L 605.207031 171.347656 L 584.296875 171.347656 L 584.296875 107.082031 L 605.207031 107.082031 L 605.207031 119.015625 C 607.347656 114.8125 610.21875 111.535156 613.828125 109.179688 C 617.4375 106.824219 621.582031 105.628906 626.261719 105.589844 Z M 504.992188 105.589844 C 509.800781 105.628906 514.429688 106.390625 518.878906 107.871094 C 523.328125 109.355469 527.363281 111.328125 530.992188 113.789062 L 523.320312 127.582031 C 520.484375 125.742188 517.460938 124.234375 514.253906 123.058594 C 511.042969 121.886719 507.957031 121.28125 504.992188 121.242188 C 503.035156 121.269531 501.460938 121.644531 500.265625 122.359375 C 499.070312 123.074219 498.453125 123.945312 498.421875 124.972656 C 498.378906 126.328125 499.148438 127.347656 500.730469 128.035156 C 502.3125 128.722656 504.972656 129.523438 508.710938 130.445312 C 512.59375 131.296875 516.367188 132.441406 520.03125 133.882812 C 523.695312 135.324219 526.722656 137.425781 529.121094 140.195312 C 531.519531 142.960938 532.761719 146.761719 532.847656 151.589844 C 532.757812 158.132812 530.339844 163.289062 525.589844 167.0625 C 520.84375 170.835938 514.308594 172.761719 505.984375 172.839844 C 500.515625 172.816406 495.191406 171.964844 490.007812 170.277344 C 484.824219 168.59375 480.246094 166.21875 476.269531 163.152344 L 484.6875 149.601562 C 487.714844 151.757812 491.125 153.511719 494.929688 154.855469 C 498.730469 156.203125 502.578125 156.898438 506.480469 156.941406 C 508.785156 156.929688 510.558594 156.578125 511.792969 155.882812 C 513.03125 155.1875 513.65625 154.214844 513.667969 152.960938 C 513.625 151.449219 512.660156 150.273438 510.769531 149.429688 C 508.882812 148.589844 506.335938 147.816406 503.132812 147.113281 C 498.9375 146.222656 495.039062 145.101562 491.429688 143.746094 C 487.820312 142.390625 484.894531 140.417969 482.648438 137.835938 C 480.402344 135.25 479.226562 131.667969 479.117188 127.085938 C 479.207031 120.808594 481.535156 115.6875 486.113281 111.722656 C 490.6875 107.761719 496.980469 105.714844 504.992188 105.589844 Z M 541.945312 89.425781 L 561.988281 89.425781 L 561.988281 107.082031 L 575.238281 107.082031 L 575.238281 123.851562 L 561.988281 123.851562 L 561.988281 148.359375 C 562.023438 150.445312 562.574219 152.117188 563.644531 153.378906 C 564.714844 154.644531 566.105469 155.289062 567.808594 155.324219 C 569.007812 155.3125 570.140625 155.117188 571.199219 154.734375 C 572.261719 154.351562 573.113281 153.84375 573.753906 153.210938 L 577.964844 166.753906 C 575.976562 168.582031 573.578125 170.046875 570.765625 171.148438 C 567.957031 172.246094 565.15625 172.8125 562.363281 172.839844 C 556.257812 172.734375 551.355469 170.804688 547.652344 167.046875 C 543.945312 163.292969 542.042969 158.347656 541.945312 152.214844 L 541.945312 123.851562 L 533.523438 123.851562 L 533.523438 107.082031 L 541.945312 107.082031 Z M 541.945312 89.425781 "/>
</g>
</svg>
